<?xml version="1.0" standalone="no"?>
<!DOCTYPE svg PUBLIC "-//W3C//DTD SVG 20010904//EN"
 "http://www.w3.org/TR/2001/REC-SVG-20010904/DTD/svg10.dtd">
<svg version="1.0" xmlns="http://www.w3.org/2000/svg"
 width="630.000000pt" height="630.000000pt" viewBox="0 0 630.000000 630.000000"
 preserveAspectRatio="xMidYMid meet">
<metadata>
Created by potrace 1.11, written by Peter Selinger 2001-2013
</metadata>
<g transform="translate(0.000000,630.000000) scale(0.100000,-0.100000)"
fill="#000000" stroke="none">
<path d="M3047 6254 c-1 -1 -45 -5 -97 -8 -52 -3 -104 -8 -115 -10 -11 -2 -49
-7 -85 -11 -36 -4 -67 -8 -70 -10 -3 -2 -26 -6 -50 -10 -59 -8 -264 -59 -364
-91 -157 -49 -330 -122 -486 -203 -58 -30 -115 -60 -127 -65 -13 -6 -23 -14
-23 -18 0 -5 -5 -8 -12 -8 -6 0 -26 -11 -44 -25 -18 -14 -35 -25 -38 -25 -5 0
-168 -110 -176 -120 -3 -3 -39 -32 -80 -65 -110 -88 -134 -109 -255 -230 -140
-141 -175 -183 -348 -416 -16 -22 -32 -46 -64 -101 -16 -27 -31 -48 -35 -48
-5 0 -8 -6 -8 -14 0 -8 -6 -21 -13 -28 -6 -7 -23 -36 -37 -63 -14 -28 -27 -52
-30 -55 -13 -13 -96 -197 -143 -315 -32 -82 -84 -237 -92 -275 -2 -8 -4 -15
-5 -15 -1 0 -3 -7 -5 -15 -1 -8 -8 -35 -15 -60 -7 -25 -13 -52 -14 -60 -1 -8
-5 -26 -9 -40 -4 -14 -9 -38 -11 -55 -3 -16 -7 -39 -9 -50 -3 -11 -8 -45 -12
-75 -4 -30 -9 -64 -11 -75 -25 -121 -24 -636 0 -760 2 -11 7 -45 10 -76 4 -31
11 -71 16 -88 5 -17 9 -34 9 -36 -1 -14 15 -96 27 -142 8 -29 21 -79 29 -110
9 -32 23 -80 32 -108 10 -27 18 -52 18 -55 13 -50 18 -50 75 1 30 27 59 49 63
49 5 0 24 12 43 26 27 21 32 30 23 40 -6 8 -8 14 -4 14 4 0 2 6 -4 13 -6 8
-12 22 -14 33 -2 10 -7 26 -10 34 -4 8 -9 26 -11 40 -3 14 -10 45 -17 70 -6
25 -13 54 -15 65 -2 11 -6 30 -8 43 -3 13 -7 31 -10 40 -12 43 -34 205 -42
322 -7 89 -7 310 0 395 11 146 33 305 50 363 3 9 7 34 11 56 3 21 7 42 10 46
2 3 6 20 9 36 3 17 15 59 27 95 11 35 22 69 23 74 13 49 21 72 32 94 8 14 14
30 14 34 0 8 8 28 45 112 56 129 191 384 215 405 3 3 11 17 19 33 8 15 18 27
23 27 4 0 8 5 8 12 0 6 26 46 58 87 221 291 450 506 738 694 71 46 143 91 159
99 17 8 64 33 105 54 63 33 203 96 220 100 3 0 16 5 30 11 14 6 42 18 63 26
20 9 37 14 37 11 0 -2 14 2 30 11 17 9 30 13 30 11 0 -3 15 1 34 9 18 8 44 16
57 19 13 2 53 12 89 21 36 9 74 19 85 21 11 2 31 6 45 9 77 17 186 34 270 42
130 12 563 5 647 -11 11 -3 44 -7 74 -11 30 -4 57 -9 60 -11 4 -2 24 -6 45
-10 22 -3 57 -10 79 -16 22 -5 49 -12 60 -15 31 -7 50 -11 55 -13 3 -1 10 -3
15 -5 6 -1 13 -3 18 -5 4 -1 12 -4 17 -5 6 -1 12 -4 15 -5 3 -1 8 -3 13 -4 44
-12 99 -29 107 -34 6 -4 16 -7 24 -9 7 -1 35 -11 62 -22 51 -22 88 -37 104
-41 30 -9 309 -159 373 -201 41 -27 77 -49 79 -49 4 0 200 -146 228 -170 255
-224 409 -397 567 -640 74 -113 97 -154 164 -290 31 -63 63 -128 72 -145 9
-16 15 -30 13 -30 -1 0 3 -13 9 -30 35 -88 58 -155 53 -155 -3 0 0 -6 6 -13 6
-8 13 -24 15 -38 3 -13 5 -24 6 -24 1 0 3 -7 5 -15 1 -8 8 -35 16 -60 13 -48
14 -52 23 -90 3 -14 8 -36 11 -50 3 -14 7 -36 10 -50 3 -14 7 -36 10 -50 3
-14 8 -47 11 -75 3 -27 7 -58 10 -67 24 -81 23 -587 -2 -710 -2 -13 -7 -43
-10 -68 -3 -25 -7 -52 -9 -60 -2 -8 -7 -31 -10 -50 -10 -59 -46 -202 -67 -265
-11 -33 -22 -67 -24 -75 -6 -29 -72 -196 -98 -253 -15 -31 -26 -58 -25 -59 4
-4 -35 -72 -46 -80 -5 -4 -7 -8 -3 -8 4 0 -7 -24 -24 -53 -17 -28 -38 -65 -46
-81 -39 -77 -197 -299 -289 -408 -15 -18 -86 -92 -158 -164 -182 -184 -365
-325 -573 -446 -96 -55 -325 -168 -352 -173 -10 -2 -37 -13 -61 -26 -24 -12
-46 -22 -49 -22 -7 1 -15 -2 -75 -22 -44 -15 -215 -62 -255 -70 -8 -2 -35 -8
-60 -14 -56 -12 -104 -21 -150 -26 -19 -2 -46 -7 -60 -10 -112 -24 -530 -24
-698 0 -60 8 -108 15 -129 19 -11 3 -36 7 -54 10 -19 3 -45 8 -59 12 -14 3
-36 8 -50 11 -14 2 -32 7 -40 10 -8 3 -22 7 -30 8 -36 7 -60 14 -79 25 -12 6
-21 8 -21 5 0 -3 -8 -2 -17 3 -32 16 -73 23 -73 12 0 -6 -30 -49 -66 -96 -36
-47 -64 -87 -61 -90 2 -3 13 -6 23 -9 11 -2 39 -11 64 -20 25 -9 52 -18 60
-20 8 -1 40 -10 71 -19 31 -9 65 -18 75 -20 11 -3 62 -13 114 -25 95 -20 164
-32 210 -36 14 -1 48 -6 75 -9 126 -16 409 -22 540 -11 65 5 181 16 205 20 32
4 116 18 135 21 11 2 34 7 50 9 17 3 38 8 47 11 9 3 26 7 37 9 12 2 49 11 84
20 34 9 69 18 77 20 8 2 15 4 15 5 0 1 7 3 15 5 26 5 199 64 233 78 17 8 61
27 97 42 110 47 249 115 255 125 3 6 15 10 25 10 10 0 20 3 22 8 2 4 44 31 93
61 246 149 485 350 684 576 54 61 111 128 127 150 16 22 34 45 40 52 17 18
163 240 190 288 6 11 28 52 48 90 21 39 42 75 46 80 5 6 9 13 9 18 1 4 10 27
21 52 11 25 30 66 41 92 50 111 146 402 163 493 2 14 9 45 15 70 7 25 14 61
17 80 2 19 7 46 9 60 3 14 7 45 11 70 3 25 7 56 9 69 22 133 22 586 1 696 -2
11 -7 49 -11 85 -4 36 -8 67 -10 70 -2 3 -6 25 -10 50 -4 25 -8 47 -10 50 -2
3 -6 23 -9 44 -33 209 -178 597 -306 821 -13 22 -34 60 -48 85 -50 90 -231
346 -282 400 -8 9 -37 42 -65 75 -54 64 -220 228 -274 272 -19 15 -46 39 -60
52 -14 13 -43 35 -63 49 -21 13 -38 29 -38 33 0 5 -7 9 -15 9 -9 0 -18 7 -21
15 -4 8 -12 15 -18 15 -7 0 -21 8 -32 18 -21 19 -145 102 -184 122 -14 7 -27
16 -30 19 -3 3 -18 13 -35 21 -16 8 -38 21 -47 29 -10 8 -18 11 -18 8 0 -4
-21 6 -47 21 -52 30 -326 152 -356 158 -10 2 -42 12 -70 22 -45 17 -171 55
-225 67 -74 18 -263 55 -305 60 -29 4 -63 9 -77 10 -95 13 -493 28 -503 19z"/>
<path d="M1107 2393 c-1 -1 -27 -4 -57 -7 -30 -3 -82 -13 -115 -21 -33 -9 -67
-17 -76 -19 -8 -2 -31 -11 -51 -19 -20 -9 -39 -13 -42 -9 -3 3 -6 -1 -6 -8 0
-7 -3 -11 -6 -8 -6 7 -190 -87 -211 -108 -8 -8 -24 -19 -36 -25 -74 -40 -248
-230 -314 -344 -18 -32 -76 -149 -79 -160 -1 -5 -8 -23 -15 -40 -11 -27 -15
-38 -22 -70 -1 -5 -6 -16 -10 -22 -5 -7 -6 -13 -3 -13 2 0 -2 -24 -10 -52 -13
-48 -27 -186 -27 -248 1 -46 12 -175 18 -200 3 -14 7 -37 10 -52 3 -15 9 -38
15 -52 5 -15 6 -26 3 -26 -4 0 -2 -5 5 -12 7 -7 12 -18 12 -26 0 -8 6 -28 14
-45 23 -51 49 -112 50 -118 2 -12 117 -186 141 -214 14 -16 34 -39 44 -50 17
-20 110 -105 150 -137 12 -10 26 -18 31 -18 6 0 10 -4 10 -10 0 -5 7 -10 15
-10 8 0 15 -3 15 -7 0 -5 10 -13 23 -19 60 -30 113 -60 119 -69 4 -5 8 -7 8
-2 0 4 12 1 28 -6 59 -31 157 -59 287 -84 40 -8 311 -9 345 -2 72 15 150 30
157 31 5 0 13 4 18 8 6 5 23 11 39 14 15 3 34 10 42 17 8 6 14 8 14 4 0 -4 11
0 25 9 14 9 25 13 25 10 0 -4 9 1 20 11 11 10 20 15 20 10 0 -4 7 -1 16 6 17
14 25 19 96 58 24 13 45 26 48 30 3 4 25 22 50 41 96 75 204 198 267 305 29
50 92 185 107 231 16 48 20 64 32 123 3 14 7 28 9 32 9 13 18 123 18 209 1
115 -9 200 -33 295 -11 44 -22 87 -24 96 -3 9 -9 25 -14 35 -5 11 -15 33 -22
49 -33 81 -88 177 -150 259 -19 26 -179 186 -205 206 -51 39 -115 80 -124 80
-6 0 -11 5 -11 12 0 6 -3 9 -6 5 -3 -3 -24 5 -45 19 -21 13 -39 21 -39 18 0
-3 -11 1 -25 10 -25 16 -158 62 -204 71 -14 3 -37 7 -51 10 -60 13 -111 17
-208 19 -57 1 -104 1 -105 -1z m273 -243 c68 -14 85 -18 85 -20 0 -1 7 -3 15
-5 49 -10 166 -67 240 -116 184 -124 320 -302 383 -504 32 -102 41 -166 40
-290 -1 -118 -9 -175 -47 -300 -13 -44 -58 -138 -69 -146 -5 -3 -8 -9 -8 -13
1 -7 -45 -79 -74 -116 -43 -53 -159 -161 -211 -195 -109 -73 -252 -133 -354
-150 -142 -23 -286 -22 -365 3 -25 7 -44 12 -70 16 -29 4 -199 78 -203 88 -2
4 -8 8 -14 8 -28 0 -178 124 -249 206 -66 77 -162 246 -167 294 0 3 -6 19 -12
35 -7 17 -14 39 -16 50 -2 11 -8 36 -12 55 -9 46 -9 304 1 355 15 79 76 245
89 245 5 0 8 6 8 14 0 47 255 336 297 336 3 0 14 6 22 14 48 41 202 107 304
130 69 16 318 20 387 6z"/>
</g>
</svg>
